# xmcd CD database file
#
# Track frame offsets:
#	150
#	13732
#	28837
#	43922
#	59477
#	75867
#	94402
#	112812
#	129162
#	145792
#	160205
#	176305
#	193165
#
# Disc length: 2784 seconds
#
# Revision: 1
# Processed by: cddbd v1.5.1PL0 Copyright (c) Steve Scherf et al.
# Submitted via: CDex 1.51
#
DISCID=a50ade0d
DTITLE=Righteous Brothers - The Original Albums 1974-1976 [CD 2)
DYEAR=1993
DGENRE=Jazz
TTITLE0=Dream On
TTITLE1=Give It To The People
TTITLE2=Substitute
TTITLE3=Hold On (To What You Got) (prev. unreleased) (Bonustrack)
TTITLE4=I Just Wanna Be Me
TTITLE5=Lines
TTITLE6=Nobody But You3
TTITLE7=All You Get From Love Is A Love Song
TTITLE8=Dr. Rock And Roll
TTITLE9=Father Of The Rock and Roll (prev. unreleased) (Bonustrack)
TTITLE10=Hey Girl (prev. unreleased) (Bonustrack)
TTITLE11=If That's The Way You Want It (prev. unreleased) (Bonustrack)
TTITLE12=High Blood Pressure
EXTD=YEAR: 1993
EXTT0=
EXTT1=
EXTT2=
EXTT3=
EXTT4=
EXTT5=
EXTT6=
EXTT7=
EXTT8=
EXTT9=
EXTT10=
EXTT11=
EXTT12=
PLAYORDER=
